<?xml version="1.0" encoding="utf-8" standalone="no"?>
<!DOCTYPE svg PUBLIC "-//W3C//DTD SVG 1.1//EN"
  "http://www.w3.org/Graphics/SVG/1.1/DTD/svg11.dtd">
<!-- Created with matplotlib (https://matplotlib.org/) -->
<svg height="345.6pt" version="1.1" viewBox="0 0 460.8 345.6" width="460.8pt" xmlns="http://www.w3.org/2000/svg" xmlns:xlink="http://www.w3.org/1999/xlink">
 <defs>
  <style type="text/css">
*{stroke-linecap:butt;stroke-linejoin:round;}
  </style>
 </defs>
 <g id="figure_1">
  <g id="patch_1">
   <path d="M 0 345.6 
L 460.8 345.6 
L 460.8 0 
L 0 0 
z
" style="fill:#ffffff;"/>
  </g>
  <g id="axes_1">
   <g id="patch_2">
    <path d="M 57.6 307.584 
L 414.72 307.584 
L 414.72 41.472 
L 57.6 41.472 
z
" style="fill:#ffffff;"/>
   </g>
   <g id="matplotlib.axis_1">
    <g id="xtick_1">
     <g id="line2d_1">
      <path clip-path="url(#pb303e0fc03)" d="M 73.832727 307.584 
L 73.832727 41.472 
" style="fill:none;stroke:#b0b0b0;stroke-linecap:square;stroke-width:0.8;"/>
     </g>
     <g id="line2d_2">
      <defs>
       <path d="M 0 0 
L 0 3.5 
" id="m7796d2e8de" style="stroke:#000000;stroke-width:0.8;"/>
      </defs>
      <g>
       <use style="stroke:#000000;stroke-width:0.8;" x="73.832727" xlink:href="#m7796d2e8de" y="307.584"/>
      </g>
     </g>
     <g id="text_1">
      <!-- 0 -->
      <defs>
       <path d="M 31.78125 66.40625 
Q 24.171875 66.40625 20.328125 58.90625 
Q 16.5 51.421875 16.5 36.375 
Q 16.5 21.390625 20.328125 13.890625 
Q 24.171875 6.390625 31.78125 6.390625 
Q 39.453125 6.390625 43.28125 13.890625 
Q 47.125 21.390625 47.125 36.375 
Q 47.125 51.421875 43.28125 58.90625 
Q 39.453125 66.40625 31.78125 66.40625 
z
M 31.78125 74.21875 
Q 44.046875 74.21875 50.515625 64.515625 
Q 56.984375 54.828125 56.984375 36.375 
Q 56.984375 17.96875 50.515625 8.265625 
Q 44.046875 -1.421875 31.78125 -1.421875 
Q 19.53125 -1.421875 13.0625 8.265625 
Q 6.59375 17.96875 6.59375 36.375 
Q 6.59375 54.828125 13.0625 64.515625 
Q 19.53125 74.21875 31.78125 74.21875 
z
" id="DejaVuSans-48"/>
      </defs>
      <g transform="translate(70.651477 322.182437)scale(0.1 -0.1)">
       <use xlink:href="#DejaVuSans-48"/>
      </g>
     </g>
    </g>
    <g id="xtick_2">
     <g id="line2d_3">
      <path clip-path="url(#pb303e0fc03)" d="M 133.898323 307.584 
L 133.898323 41.472 
" style="fill:none;stroke:#b0b0b0;stroke-linecap:square;stroke-width:0.8;"/>
     </g>
     <g id="line2d_4">
      <g>
       <use style="stroke:#000000;stroke-width:0.8;" x="133.898323" xlink:href="#m7796d2e8de" y="307.584"/>
      </g>
     </g>
     <g id="text_2">
      <!-- 200 -->
      <defs>
       <path d="M 19.1875 8.296875 
L 53.609375 8.296875 
L 53.609375 0 
L 7.328125 0 
L 7.328125 8.296875 
Q 12.9375 14.109375 22.625 23.890625 
Q 32.328125 33.6875 34.8125 36.53125 
Q 39.546875 41.84375 41.421875 45.53125 
Q 43.3125 49.21875 43.3125 52.78125 
Q 43.3125 58.59375 39.234375 62.25 
Q 35.15625 65.921875 28.609375 65.921875 
Q 23.96875 65.921875 18.8125 64.3125 
Q 13.671875 62.703125 7.8125 59.421875 
L 7.8125 69.390625 
Q 13.765625 71.78125 18.9375 73 
Q 24.125 74.21875 28.421875 74.21875 
Q 39.75 74.21875 46.484375 68.546875 
Q 53.21875 62.890625 53.21875 53.421875 
Q 53.21875 48.921875 51.53125 44.890625 
Q 49.859375 40.875 45.40625 35.40625 
Q 44.1875 33.984375 37.640625 27.21875 
Q 31.109375 20.453125 19.1875 8.296875 
z
" id="DejaVuSans-50"/>
      </defs>
      <g transform="translate(124.354573 322.182437)scale(0.1 -0.1)">
       <use xlink:href="#DejaVuSans-50"/>
       <use x="63.623047" xlink:href="#DejaVuSans-48"/>
       <use x="127.246094" xlink:href="#DejaVuSans-48"/>
      </g>
     </g>
    </g>
    <g id="xtick_3">
     <g id="line2d_5">
      <path clip-path="url(#pb303e0fc03)" d="M 193.963919 307.584 
L 193.963919 41.472 
" style="fill:none;stroke:#b0b0b0;stroke-linecap:square;stroke-width:0.8;"/>
     </g>
     <g id="line2d_6">
      <g>
       <use style="stroke:#000000;stroke-width:0.8;" x="193.963919" xlink:href="#m7796d2e8de" y="307.584"/>
      </g>
     </g>
     <g id="text_3">
      <!-- 400 -->
      <defs>
       <path d="M 37.796875 64.3125 
L 12.890625 25.390625 
L 37.796875 25.390625 
z
M 35.203125 72.90625 
L 47.609375 72.90625 
L 47.609375 25.390625 
L 58.015625 25.390625 
L 58.015625 17.1875 
L 47.609375 17.1875 
L 47.609375 0 
L 37.796875 0 
L 37.796875 17.1875 
L 4.890625 17.1875 
L 4.890625 26.703125 
z
" id="DejaVuSans-52"/>
      </defs>
      <g transform="translate(184.420169 322.182437)scale(0.1 -0.1)">
       <use xlink:href="#DejaVuSans-52"/>
       <use x="63.623047" xlink:href="#DejaVuSans-48"/>
       <use x="127.246094" xlink:href="#DejaVuSans-48"/>
      </g>
     </g>
    </g>
    <g id="xtick_4">
     <g id="line2d_7">
      <path clip-path="url(#pb303e0fc03)" d="M 254.029515 307.584 
L 254.029515 41.472 
" style="fill:none;stroke:#b0b0b0;stroke-linecap:square;stroke-width:0.8;"/>
     </g>
     <g id="line2d_8">
      <g>
       <use style="stroke:#000000;stroke-width:0.8;" x="254.029515" xlink:href="#m7796d2e8de" y="307.584"/>
      </g>
     </g>
     <g id="text_4">
      <!-- 600 -->
      <defs>
       <path d="M 33.015625 40.375 
Q 26.375 40.375 22.484375 35.828125 
Q 18.609375 31.296875 18.609375 23.390625 
Q 18.609375 15.53125 22.484375 10.953125 
Q 26.375 6.390625 33.015625 6.390625 
Q 39.65625 6.390625 43.53125 10.953125 
Q 47.40625 15.53125 47.40625 23.390625 
Q 47.40625 31.296875 43.53125 35.828125 
Q 39.65625 40.375 33.015625 40.375 
z
M 52.59375 71.296875 
L 52.59375 62.3125 
Q 48.875 64.0625 45.09375 64.984375 
Q 41.3125 65.921875 37.59375 65.921875 
Q 27.828125 65.921875 22.671875 59.328125 
Q 17.53125 52.734375 16.796875 39.40625 
Q 19.671875 43.65625 24.015625 45.921875 
Q 28.375 48.1875 33.59375 48.1875 
Q 44.578125 48.1875 50.953125 41.515625 
Q 57.328125 34.859375 57.328125 23.390625 
Q 57.328125 12.15625 50.6875 5.359375 
Q 44.046875 -1.421875 33.015625 -1.421875 
Q 20.359375 -1.421875 13.671875 8.265625 
Q 6.984375 17.96875 6.984375 36.375 
Q 6.984375 53.65625 15.1875 63.9375 
Q 23.390625 74.21875 37.203125 74.21875 
Q 40.921875 74.21875 44.703125 73.484375 
Q 48.484375 72.75 52.59375 71.296875 
z
" id="DejaVuSans-54"/>
      </defs>
      <g transform="translate(244.485765 322.182437)scale(0.1 -0.1)">
       <use xlink:href="#DejaVuSans-54"/>
       <use x="63.623047" xlink:href="#DejaVuSans-48"/>
       <use x="127.246094" xlink:href="#DejaVuSans-48"/>
      </g>
     </g>
    </g>
    <g id="xtick_5">
     <g id="line2d_9">
      <path clip-path="url(#pb303e0fc03)" d="M 314.095111 307.584 
L 314.095111 41.472 
" style="fill:none;stroke:#b0b0b0;stroke-linecap:square;stroke-width:0.8;"/>
     </g>
     <g id="line2d_10">
      <g>
       <use style="stroke:#000000;stroke-width:0.8;" x="314.095111" xlink:href="#m7796d2e8de" y="307.584"/>
      </g>
     </g>
     <g id="text_5">
      <!-- 800 -->
      <defs>
       <path d="M 31.78125 34.625 
Q 24.75 34.625 20.71875 30.859375 
Q 16.703125 27.09375 16.703125 20.515625 
Q 16.703125 13.921875 20.71875 10.15625 
Q 24.75 6.390625 31.78125 6.390625 
Q 38.8125 6.390625 42.859375 10.171875 
Q 46.921875 13.96875 46.921875 20.515625 
Q 46.921875 27.09375 42.890625 30.859375 
Q 38.875 34.625 31.78125 34.625 
z
M 21.921875 38.8125 
Q 15.578125 40.375 12.03125 44.71875 
Q 8.5 49.078125 8.5 55.328125 
Q 8.5 64.0625 14.71875 69.140625 
Q 20.953125 74.21875 31.78125 74.21875 
Q 42.671875 74.21875 48.875 69.140625 
Q 55.078125 64.0625 55.078125 55.328125 
Q 55.078125 49.078125 51.53125 44.71875 
Q 48 40.375 41.703125 38.8125 
Q 48.828125 37.15625 52.796875 32.3125 
Q 56.78125 27.484375 56.78125 20.515625 
Q 56.78125 9.90625 50.3125 4.234375 
Q 43.84375 -1.421875 31.78125 -1.421875 
Q 19.734375 -1.421875 13.25 4.234375 
Q 6.78125 9.90625 6.78125 20.515625 
Q 6.78125 27.484375 10.78125 32.3125 
Q 14.796875 37.15625 21.921875 38.8125 
z
M 18.3125 54.390625 
Q 18.3125 48.734375 21.84375 45.5625 
Q 25.390625 42.390625 31.78125 42.390625 
Q 38.140625 42.390625 41.71875 45.5625 
Q 45.3125 48.734375 45.3125 54.390625 
Q 45.3125 60.0625 41.71875 63.234375 
Q 38.140625 66.40625 31.78125 66.40625 
Q 25.390625 66.40625 21.84375 63.234375 
Q 18.3125 60.0625 18.3125 54.390625 
z
" id="DejaVuSans-56"/>
      </defs>
      <g transform="translate(304.551361 322.182437)scale(0.1 -0.1)">
       <use xlink:href="#DejaVuSans-56"/>
       <use x="63.623047" xlink:href="#DejaVuSans-48"/>
       <use x="127.246094" xlink:href="#DejaVuSans-48"/>
      </g>
     </g>
    </g>
    <g id="xtick_6">
     <g id="line2d_11">
      <path clip-path="url(#pb303e0fc03)" d="M 374.160706 307.584 
L 374.160706 41.472 
" style="fill:none;stroke:#b0b0b0;stroke-linecap:square;stroke-width:0.8;"/>
     </g>
     <g id="line2d_12">
      <g>
       <use style="stroke:#000000;stroke-width:0.8;" x="374.160706" xlink:href="#m7796d2e8de" y="307.584"/>
      </g>
     </g>
     <g id="text_6">
      <!-- 1000 -->
      <defs>
       <path d="M 12.40625 8.296875 
L 28.515625 8.296875 
L 28.515625 63.921875 
L 10.984375 60.40625 
L 10.984375 69.390625 
L 28.421875 72.90625 
L 38.28125 72.90625 
L 38.28125 8.296875 
L 54.390625 8.296875 
L 54.390625 0 
L 12.40625 0 
z
" id="DejaVuSans-49"/>
      </defs>
      <g transform="translate(361.435706 322.182437)scale(0.1 -0.1)">
       <use xlink:href="#DejaVuSans-49"/>
       <use x="63.623047" xlink:href="#DejaVuSans-48"/>
       <use x="127.246094" xlink:href="#DejaVuSans-48"/>
       <use x="190.869141" xlink:href="#DejaVuSans-48"/>
      </g>
     </g>
    </g>
    <g id="text_7">
     <!-- Número de dias desde o primeiro caso -->
     <defs>
      <path d="M 9.8125 72.90625 
L 23.09375 72.90625 
L 55.421875 11.921875 
L 55.421875 72.90625 
L 64.984375 72.90625 
L 64.984375 0 
L 51.703125 0 
L 19.390625 60.984375 
L 19.390625 0 
L 9.8125 0 
z
" id="DejaVuSans-78"/>
      <path d="M 8.5 21.578125 
L 8.5 54.6875 
L 17.484375 54.6875 
L 17.484375 21.921875 
Q 17.484375 14.15625 20.5 10.265625 
Q 23.53125 6.390625 29.59375 6.390625 
Q 36.859375 6.390625 41.078125 11.03125 
Q 45.3125 15.671875 45.3125 23.6875 
L 45.3125 54.6875 
L 54.296875 54.6875 
L 54.296875 0 
L 45.3125 0 
L 45.3125 8.40625 
Q 42.046875 3.421875 37.71875 1 
Q 33.40625 -1.421875 27.6875 -1.421875 
Q 18.265625 -1.421875 13.375 4.4375 
Q 8.5 10.296875 8.5 21.578125 
z
M 31.109375 56 
z
M 37.78125 79.984375 
L 47.5 79.984375 
L 31.59375 61.625 
L 24.109375 61.625 
z
" id="DejaVuSans-250"/>
      <path d="M 52 44.1875 
Q 55.375 50.25 60.0625 53.125 
Q 64.75 56 71.09375 56 
Q 79.640625 56 84.28125 50.015625 
Q 88.921875 44.046875 88.921875 33.015625 
L 88.921875 0 
L 79.890625 0 
L 79.890625 32.71875 
Q 79.890625 40.578125 77.09375 44.375 
Q 74.3125 48.1875 68.609375 48.1875 
Q 61.625 48.1875 57.5625 43.546875 
Q 53.515625 38.921875 53.515625 30.90625 
L 53.515625 0 
L 44.484375 0 
L 44.484375 32.71875 
Q 44.484375 40.625 41.703125 44.40625 
Q 38.921875 48.1875 33.109375 48.1875 
Q 26.21875 48.1875 22.15625 43.53125 
Q 18.109375 38.875 18.109375 30.90625 
L 18.109375 0 
L 9.078125 0 
L 9.078125 54.6875 
L 18.109375 54.6875 
L 18.109375 46.1875 
Q 21.1875 51.21875 25.484375 53.609375 
Q 29.78125 56 35.6875 56 
Q 41.65625 56 45.828125 52.96875 
Q 50 49.953125 52 44.1875 
z
" id="DejaVuSans-109"/>
      <path d="M 56.203125 29.59375 
L 56.203125 25.203125 
L 14.890625 25.203125 
Q 15.484375 15.921875 20.484375 11.0625 
Q 25.484375 6.203125 34.421875 6.203125 
Q 39.59375 6.203125 44.453125 7.46875 
Q 49.3125 8.734375 54.109375 11.28125 
L 54.109375 2.78125 
Q 49.265625 0.734375 44.1875 -0.34375 
Q 39.109375 -1.421875 33.890625 -1.421875 
Q 20.796875 -1.421875 13.15625 6.1875 
Q 5.515625 13.8125 5.515625 26.8125 
Q 5.515625 40.234375 12.765625 48.109375 
Q 20.015625 56 32.328125 56 
Q 43.359375 56 49.78125 48.890625 
Q 56.203125 41.796875 56.203125 29.59375 
z
M 47.21875 32.234375 
Q 47.125 39.59375 43.09375 43.984375 
Q 39.0625 48.390625 32.421875 48.390625 
Q 24.90625 48.390625 20.390625 44.140625 
Q 15.875 39.890625 15.1875 32.171875 
z
" id="DejaVuSans-101"/>
      <path d="M 41.109375 46.296875 
Q 39.59375 47.171875 37.8125 47.578125 
Q 36.03125 48 33.890625 48 
Q 26.265625 48 22.1875 43.046875 
Q 18.109375 38.09375 18.109375 28.8125 
L 18.109375 0 
L 9.078125 0 
L 9.078125 54.6875 
L 18.109375 54.6875 
L 18.109375 46.1875 
Q 20.953125 51.171875 25.484375 53.578125 
Q 30.03125 56 36.53125 56 
Q 37.453125 56 38.578125 55.875 
Q 39.703125 55.765625 41.0625 55.515625 
z
" id="DejaVuSans-114"/>
      <path d="M 30.609375 48.390625 
Q 23.390625 48.390625 19.1875 42.75 
Q 14.984375 37.109375 14.984375 27.296875 
Q 14.984375 17.484375 19.15625 11.84375 
Q 23.34375 6.203125 30.609375 6.203125 
Q 37.796875 6.203125 41.984375 11.859375 
Q 46.1875 17.53125 46.1875 27.296875 
Q 46.1875 37.015625 41.984375 42.703125 
Q 37.796875 48.390625 30.609375 48.390625 
z
M 30.609375 56 
Q 42.328125 56 49.015625 48.375 
Q 55.71875 40.765625 55.71875 27.296875 
Q 55.71875 13.875 49.015625 6.21875 
Q 42.328125 -1.421875 30.609375 -1.421875 
Q 18.84375 -1.421875 12.171875 6.21875 
Q 5.515625 13.875 5.515625 27.296875 
Q 5.515625 40.765625 12.171875 48.375 
Q 18.84375 56 30.609375 56 
z
" id="DejaVuSans-111"/>
      <path id="DejaVuSans-32"/>
      <path d="M 45.40625 46.390625 
L 45.40625 75.984375 
L 54.390625 75.984375 
L 54.390625 0 
L 45.40625 0 
L 45.40625 8.203125 
Q 42.578125 3.328125 38.25 0.953125 
Q 33.9375 -1.421875 27.875 -1.421875 
Q 17.96875 -1.421875 11.734375 6.484375 
Q 5.515625 14.40625 5.515625 27.296875 
Q 5.515625 40.1875 11.734375 48.09375 
Q 17.96875 56 27.875 56 
Q 33.9375 56 38.25 53.625 
Q 42.578125 51.265625 45.40625 46.390625 
z
M 14.796875 27.296875 
Q 14.796875 17.390625 18.875 11.75 
Q 22.953125 6.109375 30.078125 6.109375 
Q 37.203125 6.109375 41.296875 11.75 
Q 45.40625 17.390625 45.40625 27.296875 
Q 45.40625 37.203125 41.296875 42.84375 
Q 37.203125 48.484375 30.078125 48.484375 
Q 22.953125 48.484375 18.875 42.84375 
Q 14.796875 37.203125 14.796875 27.296875 
z
" id="DejaVuSans-100"/>
      <path d="M 9.421875 54.6875 
L 18.40625 54.6875 
L 18.40625 0 
L 9.421875 0 
z
M 9.421875 75.984375 
L 18.40625 75.984375 
L 18.40625 64.59375 
L 9.421875 64.59375 
z
" id="DejaVuSans-105"/>
      <path d="M 34.28125 27.484375 
Q 23.390625 27.484375 19.1875 25 
Q 14.984375 22.515625 14.984375 16.5 
Q 14.984375 11.71875 18.140625 8.90625 
Q 21.296875 6.109375 26.703125 6.109375 
Q 34.1875 6.109375 38.703125 11.40625 
Q 43.21875 16.703125 43.21875 25.484375 
L 43.21875 27.484375 
z
M 52.203125 31.203125 
L 52.203125 0 
L 43.21875 0 
L 43.21875 8.296875 
Q 40.140625 3.328125 35.546875 0.953125 
Q 30.953125 -1.421875 24.3125 -1.421875 
Q 15.921875 -1.421875 10.953125 3.296875 
Q 6 8.015625 6 15.921875 
Q 6 25.140625 12.171875 29.828125 
Q 18.359375 34.515625 30.609375 34.515625 
L 43.21875 34.515625 
L 43.21875 35.40625 
Q 43.21875 41.609375 39.140625 45 
Q 35.0625 48.390625 27.6875 48.390625 
Q 23 48.390625 18.546875 47.265625 
Q 14.109375 46.140625 10.015625 43.890625 
L 10.015625 52.203125 
Q 14.9375 54.109375 19.578125 55.046875 
Q 24.21875 56 28.609375 56 
Q 40.484375 56 46.34375 49.84375 
Q 52.203125 43.703125 52.203125 31.203125 
z
" id="DejaVuSans-97"/>
      <path d="M 44.28125 53.078125 
L 44.28125 44.578125 
Q 40.484375 46.53125 36.375 47.5 
Q 32.28125 48.484375 27.875 48.484375 
Q 21.1875 48.484375 17.84375 46.4375 
Q 14.5 44.390625 14.5 40.28125 
Q 14.5 37.15625 16.890625 35.375 
Q 19.28125 33.59375 26.515625 31.984375 
L 29.59375 31.296875 
Q 39.15625 29.25 43.1875 25.515625 
Q 47.21875 21.78125 47.21875 15.09375 
Q 47.21875 7.46875 41.1875 3.015625 
Q 35.15625 -1.421875 24.609375 -1.421875 
Q 20.21875 -1.421875 15.453125 -0.5625 
Q 10.6875 0.296875 5.421875 2 
L 5.421875 11.28125 
Q 10.40625 8.6875 15.234375 7.390625 
Q 20.0625 6.109375 24.8125 6.109375 
Q 31.15625 6.109375 34.5625 8.28125 
Q 37.984375 10.453125 37.984375 14.40625 
Q 37.984375 18.0625 35.515625 20.015625 
Q 33.0625 21.96875 24.703125 23.78125 
L 21.578125 24.515625 
Q 13.234375 26.265625 9.515625 29.90625 
Q 5.8125 33.546875 5.8125 39.890625 
Q 5.8125 47.609375 11.28125 51.796875 
Q 16.75 56 26.8125 56 
Q 31.78125 56 36.171875 55.265625 
Q 40.578125 54.546875 44.28125 53.078125 
z
" id="DejaVuSans-115"/>
      <path d="M 18.109375 8.203125 
L 18.109375 -20.796875 
L 9.078125 -20.796875 
L 9.078125 54.6875 
L 18.109375 54.6875 
L 18.109375 46.390625 
Q 20.953125 51.265625 25.265625 53.625 
Q 29.59375 56 35.59375 56 
Q 45.5625 56 51.78125 48.09375 
Q 58.015625 40.1875 58.015625 27.296875 
Q 58.015625 14.40625 51.78125 6.484375 
Q 45.5625 -1.421875 35.59375 -1.421875 
Q 29.59375 -1.421875 25.265625 0.953125 
Q 20.953125 3.328125 18.109375 8.203125 
z
M 48.6875 27.296875 
Q 48.6875 37.203125 44.609375 42.84375 
Q 40.53125 48.484375 33.40625 48.484375 
Q 26.265625 48.484375 22.1875 42.84375 
Q 18.109375 37.203125 18.109375 27.296875 
Q 18.109375 17.390625 22.1875 11.75 
Q 26.265625 6.109375 33.40625 6.109375 
Q 40.53125 6.109375 44.609375 11.75 
Q 48.6875 17.390625 48.6875 27.296875 
z
" id="DejaVuSans-112"/>
      <path d="M 48.78125 52.59375 
L 48.78125 44.1875 
Q 44.96875 46.296875 41.140625 47.34375 
Q 37.3125 48.390625 33.40625 48.390625 
Q 24.65625 48.390625 19.8125 42.84375 
Q 14.984375 37.3125 14.984375 27.296875 
Q 14.984375 17.28125 19.8125 11.734375 
Q 24.65625 6.203125 33.40625 6.203125 
Q 37.3125 6.203125 41.140625 7.25 
Q 44.96875 8.296875 48.78125 10.40625 
L 48.78125 2.09375 
Q 45.015625 0.34375 40.984375 -0.53125 
Q 36.96875 -1.421875 32.421875 -1.421875 
Q 20.0625 -1.421875 12.78125 6.34375 
Q 5.515625 14.109375 5.515625 27.296875 
Q 5.515625 40.671875 12.859375 48.328125 
Q 20.21875 56 33.015625 56 
Q 37.15625 56 41.109375 55.140625 
Q 45.0625 54.296875 48.78125 52.59375 
z
" id="DejaVuSans-99"/>
     </defs>
     <g transform="translate(139.462344 336.260562)scale(0.1 -0.1)">
      <use xlink:href="#DejaVuSans-78"/>
      <use x="74.804688" xlink:href="#DejaVuSans-250"/>
      <use x="138.183594" xlink:href="#DejaVuSans-109"/>
      <use x="235.595703" xlink:href="#DejaVuSans-101"/>
      <use x="297.119141" xlink:href="#DejaVuSans-114"/>
      <use x="338.201172" xlink:href="#DejaVuSans-111"/>
      <use x="399.382812" xlink:href="#DejaVuSans-32"/>
      <use x="431.169922" xlink:href="#DejaVuSans-100"/>
      <use x="494.646484" xlink:href="#DejaVuSans-101"/>
      <use x="556.169922" xlink:href="#DejaVuSans-32"/>
      <use x="587.957031" xlink:href="#DejaVuSans-100"/>
      <use x="651.433594" xlink:href="#DejaVuSans-105"/>
      <use x="679.216797" xlink:href="#DejaVuSans-97"/>
      <use x="740.496094" xlink:href="#DejaVuSans-115"/>
      <use x="792.595703" xlink:href="#DejaVuSans-32"/>
      <use x="824.382812" xlink:href="#DejaVuSans-100"/>
      <use x="887.859375" xlink:href="#DejaVuSans-101"/>
      <use x="949.382812" xlink:href="#DejaVuSans-115"/>
      <use x="1001.482422" xlink:href="#DejaVuSans-100"/>
      <use x="1064.958984" xlink:href="#DejaVuSans-101"/>
      <use x="1126.482422" xlink:href="#DejaVuSans-32"/>
      <use x="1158.269531" xlink:href="#DejaVuSans-111"/>
      <use x="1219.451172" xlink:href="#DejaVuSans-32"/>
      <use x="1251.238281" xlink:href="#DejaVuSans-112"/>
      <use x="1314.714844" xlink:href="#DejaVuSans-114"/>
      <use x="1355.828125" xlink:href="#DejaVuSans-105"/>
      <use x="1383.611328" xlink:href="#DejaVuSans-109"/>
      <use x="1481.023438" xlink:href="#DejaVuSans-101"/>
      <use x="1542.546875" xlink:href="#DejaVuSans-105"/>
      <use x="1570.330078" xlink:href="#DejaVuSans-114"/>
      <use x="1611.412109" xlink:href="#DejaVuSans-111"/>
      <use x="1672.59375" xlink:href="#DejaVuSans-32"/>
      <use x="1704.380859" xlink:href="#DejaVuSans-99"/>
      <use x="1759.361328" xlink:href="#DejaVuSans-97"/>
      <use x="1820.640625" xlink:href="#DejaVuSans-115"/>
      <use x="1872.740234" xlink:href="#DejaVuSans-111"/>
     </g>
    </g>
   </g>
   <g id="matplotlib.axis_2">
    <g id="ytick_1">
     <g id="line2d_13">
      <path clip-path="url(#pb303e0fc03)" d="M 57.6 295.488 
L 414.72 295.488 
" style="fill:none;stroke:#b0b0b0;stroke-linecap:square;stroke-width:0.8;"/>
     </g>
     <g id="line2d_14">
      <defs>
       <path d="M 0 0 
L -3.5 0 
" id="mb28e5b6522" style="stroke:#000000;stroke-width:0.8;"/>
      </defs>
      <g>
       <use style="stroke:#000000;stroke-width:0.8;" x="57.6" xlink:href="#mb28e5b6522" y="295.488"/>
      </g>
     </g>
     <g id="text_8">
      <!-- 0 -->
      <g transform="translate(44.2375 299.287219)scale(0.1 -0.1)">
       <use xlink:href="#DejaVuSans-48"/>
      </g>
     </g>
    </g>
    <g id="ytick_2">
     <g id="line2d_15">
      <path clip-path="url(#pb303e0fc03)" d="M 57.6 257.779167 
L 414.72 257.779167 
" style="fill:none;stroke:#b0b0b0;stroke-linecap:square;stroke-width:0.8;"/>
     </g>
     <g id="line2d_16">
      <g>
       <use style="stroke:#000000;stroke-width:0.8;" x="57.6" xlink:href="#mb28e5b6522" y="257.779167"/>
      </g>
     </g>
     <g id="text_9">
      <!-- 10 -->
      <g transform="translate(37.875 261.578386)scale(0.1 -0.1)">
       <use xlink:href="#DejaVuSans-49"/>
       <use x="63.623047" xlink:href="#DejaVuSans-48"/>
      </g>
     </g>
    </g>
    <g id="ytick_3">
     <g id="line2d_17">
      <path clip-path="url(#pb303e0fc03)" d="M 57.6 220.070334 
L 414.72 220.070334 
" style="fill:none;stroke:#b0b0b0;stroke-linecap:square;stroke-width:0.8;"/>
     </g>
     <g id="line2d_18">
      <g>
       <use style="stroke:#000000;stroke-width:0.8;" x="57.6" xlink:href="#mb28e5b6522" y="220.070334"/>
      </g>
     </g>
     <g id="text_10">
      <!-- 20 -->
      <g transform="translate(37.875 223.869552)scale(0.1 -0.1)">
       <use xlink:href="#DejaVuSans-50"/>
       <use x="63.623047" xlink:href="#DejaVuSans-48"/>
      </g>
     </g>
    </g>
    <g id="ytick_4">
     <g id="line2d_19">
      <path clip-path="url(#pb303e0fc03)" d="M 57.6 182.3615 
L 414.72 182.3615 
" style="fill:none;stroke:#b0b0b0;stroke-linecap:square;stroke-width:0.8;"/>
     </g>
     <g id="line2d_20">
      <g>
       <use style="stroke:#000000;stroke-width:0.8;" x="57.6" xlink:href="#mb28e5b6522" y="182.3615"/>
      </g>
     </g>
     <g id="text_11">
      <!-- 30 -->
      <defs>
       <path d="M 40.578125 39.3125 
Q 47.65625 37.796875 51.625 33 
Q 55.609375 28.21875 55.609375 21.1875 
Q 55.609375 10.40625 48.1875 4.484375 
Q 40.765625 -1.421875 27.09375 -1.421875 
Q 22.515625 -1.421875 17.65625 -0.515625 
Q 12.796875 0.390625 7.625 2.203125 
L 7.625 11.71875 
Q 11.71875 9.328125 16.59375 8.109375 
Q 21.484375 6.890625 26.8125 6.890625 
Q 36.078125 6.890625 40.9375 10.546875 
Q 45.796875 14.203125 45.796875 21.1875 
Q 45.796875 27.640625 41.28125 31.265625 
Q 36.765625 34.90625 28.71875 34.90625 
L 20.21875 34.90625 
L 20.21875 43.015625 
L 29.109375 43.015625 
Q 36.375 43.015625 40.234375 45.921875 
Q 44.09375 48.828125 44.09375 54.296875 
Q 44.09375 59.90625 40.109375 62.90625 
Q 36.140625 65.921875 28.71875 65.921875 
Q 24.65625 65.921875 20.015625 65.03125 
Q 15.375 64.15625 9.8125 62.3125 
L 9.8125 71.09375 
Q 15.4375 72.65625 20.34375 73.4375 
Q 25.25 74.21875 29.59375 74.21875 
Q 40.828125 74.21875 47.359375 69.109375 
Q 53.90625 64.015625 53.90625 55.328125 
Q 53.90625 49.265625 50.4375 45.09375 
Q 46.96875 40.921875 40.578125 39.3125 
z
" id="DejaVuSans-51"/>
      </defs>
      <g transform="translate(37.875 186.160719)scale(0.1 -0.1)">
       <use xlink:href="#DejaVuSans-51"/>
       <use x="63.623047" xlink:href="#DejaVuSans-48"/>
      </g>
     </g>
    </g>
    <g id="ytick_5">
     <g id="line2d_21">
      <path clip-path="url(#pb303e0fc03)" d="M 57.6 144.652667 
L 414.72 144.652667 
" style="fill:none;stroke:#b0b0b0;stroke-linecap:square;stroke-width:0.8;"/>
     </g>
     <g id="line2d_22">
      <g>
       <use style="stroke:#000000;stroke-width:0.8;" x="57.6" xlink:href="#mb28e5b6522" y="144.652667"/>
      </g>
     </g>
     <g id="text_12">
      <!-- 40 -->
      <g transform="translate(37.875 148.451886)scale(0.1 -0.1)">
       <use xlink:href="#DejaVuSans-52"/>
       <use x="63.623047" xlink:href="#DejaVuSans-48"/>
      </g>
     </g>
    </g>
    <g id="ytick_6">
     <g id="line2d_23">
      <path clip-path="url(#pb303e0fc03)" d="M 57.6 106.943834 
L 414.72 106.943834 
" style="fill:none;stroke:#b0b0b0;stroke-linecap:square;stroke-width:0.8;"/>
     </g>
     <g id="line2d_24">
      <g>
       <use style="stroke:#000000;stroke-width:0.8;" x="57.6" xlink:href="#mb28e5b6522" y="106.943834"/>
      </g>
     </g>
     <g id="text_13">
      <!-- 50 -->
      <defs>
       <path d="M 10.796875 72.90625 
L 49.515625 72.90625 
L 49.515625 64.59375 
L 19.828125 64.59375 
L 19.828125 46.734375 
Q 21.96875 47.46875 24.109375 47.828125 
Q 26.265625 48.1875 28.421875 48.1875 
Q 40.625 48.1875 47.75 41.5 
Q 54.890625 34.8125 54.890625 23.390625 
Q 54.890625 11.625 47.5625 5.09375 
Q 40.234375 -1.421875 26.90625 -1.421875 
Q 22.3125 -1.421875 17.546875 -0.640625 
Q 12.796875 0.140625 7.71875 1.703125 
L 7.71875 11.625 
Q 12.109375 9.234375 16.796875 8.0625 
Q 21.484375 6.890625 26.703125 6.890625 
Q 35.15625 6.890625 40.078125 11.328125 
Q 45.015625 15.765625 45.015625 23.390625 
Q 45.015625 31 40.078125 35.4375 
Q 35.15625 39.890625 26.703125 39.890625 
Q 22.75 39.890625 18.8125 39.015625 
Q 14.890625 38.140625 10.796875 36.28125 
z
" id="DejaVuSans-53"/>
      </defs>
      <g transform="translate(37.875 110.743053)scale(0.1 -0.1)">
       <use xlink:href="#DejaVuSans-53"/>
       <use x="63.623047" xlink:href="#DejaVuSans-48"/>
      </g>
     </g>
    </g>
    <g id="ytick_7">
     <g id="line2d_25">
      <path clip-path="url(#pb303e0fc03)" d="M 57.6 69.235001 
L 414.72 69.235001 
" style="fill:none;stroke:#b0b0b0;stroke-linecap:square;stroke-width:0.8;"/>
     </g>
     <g id="line2d_26">
      <g>
       <use style="stroke:#000000;stroke-width:0.8;" x="57.6" xlink:href="#mb28e5b6522" y="69.235001"/>
      </g>
     </g>
     <g id="text_14">
      <!-- 60 -->
      <g transform="translate(37.875 73.03422)scale(0.1 -0.1)">
       <use xlink:href="#DejaVuSans-54"/>
       <use x="63.623047" xlink:href="#DejaVuSans-48"/>
      </g>
     </g>
    </g>
    <g id="text_15">
     <!-- População infectada [%] -->
     <defs>
      <path d="M 19.671875 64.796875 
L 19.671875 37.40625 
L 32.078125 37.40625 
Q 38.96875 37.40625 42.71875 40.96875 
Q 46.484375 44.53125 46.484375 51.125 
Q 46.484375 57.671875 42.71875 61.234375 
Q 38.96875 64.796875 32.078125 64.796875 
z
M 9.8125 72.90625 
L 32.078125 72.90625 
Q 44.34375 72.90625 50.609375 67.359375 
Q 56.890625 61.8125 56.890625 51.125 
Q 56.890625 40.328125 50.609375 34.8125 
Q 44.34375 29.296875 32.078125 29.296875 
L 19.671875 29.296875 
L 19.671875 0 
L 9.8125 0 
z
" id="DejaVuSans-80"/>
      <path d="M 8.5 21.578125 
L 8.5 54.6875 
L 17.484375 54.6875 
L 17.484375 21.921875 
Q 17.484375 14.15625 20.5 10.265625 
Q 23.53125 6.390625 29.59375 6.390625 
Q 36.859375 6.390625 41.078125 11.03125 
Q 45.3125 15.671875 45.3125 23.6875 
L 45.3125 54.6875 
L 54.296875 54.6875 
L 54.296875 0 
L 45.3125 0 
L 45.3125 8.40625 
Q 42.046875 3.421875 37.71875 1 
Q 33.40625 -1.421875 27.6875 -1.421875 
Q 18.265625 -1.421875 13.375 4.4375 
Q 8.5 10.296875 8.5 21.578125 
z
M 31.109375 56 
z
" id="DejaVuSans-117"/>
      <path d="M 9.421875 75.984375 
L 18.40625 75.984375 
L 18.40625 0 
L 9.421875 0 
z
" id="DejaVuSans-108"/>
      <path d="M 48.78125 52.59375 
L 48.78125 44.1875 
Q 44.96875 46.296875 41.140625 47.34375 
Q 37.3125 48.390625 33.40625 48.390625 
Q 24.65625 48.390625 19.8125 42.84375 
Q 14.984375 37.3125 14.984375 27.296875 
Q 14.984375 17.28125 19.8125 11.734375 
Q 24.65625 6.203125 33.40625 6.203125 
Q 37.3125 6.203125 41.140625 7.25 
Q 44.96875 8.296875 48.78125 10.40625 
L 48.78125 2.09375 
Q 45.015625 0.34375 40.984375 -0.53125 
Q 36.96875 -1.421875 32.421875 -1.421875 
Q 20.0625 -1.421875 12.78125 6.34375 
Q 5.515625 14.109375 5.515625 27.296875 
Q 5.515625 40.671875 12.859375 48.328125 
Q 20.21875 56 33.015625 56 
Q 37.15625 56 41.109375 55.140625 
Q 45.0625 54.296875 48.78125 52.59375 
z
M 36.109375 0 
Q 38.78125 -3.03125 40.09375 -5.59375 
Q 41.421875 -8.15625 41.421875 -10.5 
Q 41.421875 -14.84375 38.484375 -17.0625 
Q 35.5625 -19.28125 29.796875 -19.28125 
Q 27.5625 -19.28125 25.4375 -18.984375 
Q 23.3125 -18.703125 21.203125 -18.109375 
L 21.203125 -11.71875 
Q 22.875 -12.546875 24.671875 -12.90625 
Q 26.484375 -13.28125 28.78125 -13.28125 
Q 31.65625 -13.28125 33.125 -12.109375 
Q 34.59375 -10.9375 34.59375 -8.6875 
Q 34.59375 -7.234375 33.53125 -5.109375 
Q 32.484375 -2.984375 30.296875 0 
z
" id="DejaVuSans-231"/>
      <path d="M 34.28125 27.484375 
Q 23.390625 27.484375 19.1875 25 
Q 14.984375 22.515625 14.984375 16.5 
Q 14.984375 11.71875 18.140625 8.90625 
Q 21.296875 6.109375 26.703125 6.109375 
Q 34.1875 6.109375 38.703125 11.40625 
Q 43.21875 16.703125 43.21875 25.484375 
L 43.21875 27.484375 
z
M 52.203125 31.203125 
L 52.203125 0 
L 43.21875 0 
L 43.21875 8.296875 
Q 40.140625 3.328125 35.546875 0.953125 
Q 30.953125 -1.421875 24.3125 -1.421875 
Q 15.921875 -1.421875 10.953125 3.296875 
Q 6 8.015625 6 15.921875 
Q 6 25.140625 12.171875 29.828125 
Q 18.359375 34.515625 30.609375 34.515625 
L 43.21875 34.515625 
L 43.21875 35.40625 
Q 43.21875 41.609375 39.140625 45 
Q 35.0625 48.390625 27.6875 48.390625 
Q 23 48.390625 18.546875 47.265625 
Q 14.109375 46.140625 10.015625 43.890625 
L 10.015625 52.203125 
Q 14.9375 54.109375 19.578125 55.046875 
Q 24.21875 56 28.609375 56 
Q 40.484375 56 46.34375 49.84375 
Q 52.203125 43.703125 52.203125 31.203125 
z
M 28.8125 66.890625 
L 26.015625 69.578125 
Q 24.953125 70.5625 24.140625 71.015625 
Q 23.34375 71.484375 22.703125 71.484375 
Q 20.84375 71.484375 19.96875 69.703125 
Q 19.09375 67.921875 18.984375 63.921875 
L 12.890625 63.921875 
Q 12.984375 70.515625 15.46875 74.09375 
Q 17.96875 77.6875 22.40625 77.6875 
Q 24.265625 77.6875 25.828125 77 
Q 27.390625 76.3125 29.203125 74.703125 
L 31.984375 72.015625 
Q 33.046875 71.046875 33.859375 70.578125 
Q 34.671875 70.125 35.296875 70.125 
Q 37.15625 70.125 38.03125 71.90625 
Q 38.90625 73.6875 39.015625 77.6875 
L 45.109375 77.6875 
Q 45.015625 71.09375 42.515625 67.5 
Q 40.03125 63.921875 35.59375 63.921875 
Q 33.734375 63.921875 32.171875 64.59375 
Q 30.609375 65.28125 28.8125 66.890625 
z
" id="DejaVuSans-227"/>
      <path d="M 54.890625 33.015625 
L 54.890625 0 
L 45.90625 0 
L 45.90625 32.71875 
Q 45.90625 40.484375 42.875 44.328125 
Q 39.84375 48.1875 33.796875 48.1875 
Q 26.515625 48.1875 22.3125 43.546875 
Q 18.109375 38.921875 18.109375 30.90625 
L 18.109375 0 
L 9.078125 0 
L 9.078125 54.6875 
L 18.109375 54.6875 
L 18.109375 46.1875 
Q 21.34375 51.125 25.703125 53.5625 
Q 30.078125 56 35.796875 56 
Q 45.21875 56 50.046875 50.171875 
Q 54.890625 44.34375 54.890625 33.015625 
z
" id="DejaVuSans-110"/>
      <path d="M 37.109375 75.984375 
L 37.109375 68.5 
L 28.515625 68.5 
Q 23.6875 68.5 21.796875 66.546875 
Q 19.921875 64.59375 19.921875 59.515625 
L 19.921875 54.6875 
L 34.71875 54.6875 
L 34.71875 47.703125 
L 19.921875 47.703125 
L 19.921875 0 
L 10.890625 0 
L 10.890625 47.703125 
L 2.296875 47.703125 
L 2.296875 54.6875 
L 10.890625 54.6875 
L 10.890625 58.5 
Q 10.890625 67.625 15.140625 71.796875 
Q 19.390625 75.984375 28.609375 75.984375 
z
" id="DejaVuSans-102"/>
      <path d="M 18.3125 70.21875 
L 18.3125 54.6875 
L 36.8125 54.6875 
L 36.8125 47.703125 
L 18.3125 47.703125 
L 18.3125 18.015625 
Q 18.3125 11.328125 20.140625 9.421875 
Q 21.96875 7.515625 27.59375 7.515625 
L 36.8125 7.515625 
L 36.8125 0 
L 27.59375 0 
Q 17.1875 0 13.234375 3.875 
Q 9.28125 7.765625 9.28125 18.015625 
L 9.28125 47.703125 
L 2.6875 47.703125 
L 2.6875 54.6875 
L 9.28125 54.6875 
L 9.28125 70.21875 
z
" id="DejaVuSans-116"/>
      <path d="M 8.59375 75.984375 
L 29.296875 75.984375 
L 29.296875 69 
L 17.578125 69 
L 17.578125 -6.203125 
L 29.296875 -6.203125 
L 29.296875 -13.1875 
L 8.59375 -13.1875 
z
" id="DejaVuSans-91"/>
      <path d="M 72.703125 32.078125 
Q 68.453125 32.078125 66.03125 28.46875 
Q 63.625 24.859375 63.625 18.40625 
Q 63.625 12.0625 66.03125 8.421875 
Q 68.453125 4.78125 72.703125 4.78125 
Q 76.859375 4.78125 79.265625 8.421875 
Q 81.6875 12.0625 81.6875 18.40625 
Q 81.6875 24.8125 79.265625 28.4375 
Q 76.859375 32.078125 72.703125 32.078125 
z
M 72.703125 38.28125 
Q 80.421875 38.28125 84.953125 32.90625 
Q 89.5 27.546875 89.5 18.40625 
Q 89.5 9.28125 84.9375 3.921875 
Q 80.375 -1.421875 72.703125 -1.421875 
Q 64.890625 -1.421875 60.34375 3.921875 
Q 55.8125 9.28125 55.8125 18.40625 
Q 55.8125 27.59375 60.375 32.9375 
Q 64.9375 38.28125 72.703125 38.28125 
z
M 22.3125 68.015625 
Q 18.109375 68.015625 15.6875 64.375 
Q 13.28125 60.75 13.28125 54.390625 
Q 13.28125 47.953125 15.671875 44.328125 
Q 18.0625 40.71875 22.3125 40.71875 
Q 26.5625 40.71875 28.96875 44.328125 
Q 31.390625 47.953125 31.390625 54.390625 
Q 31.390625 60.6875 28.953125 64.34375 
Q 26.515625 68.015625 22.3125 68.015625 
z
M 66.40625 74.21875 
L 74.21875 74.21875 
L 28.609375 -1.421875 
L 20.796875 -1.421875 
z
M 22.3125 74.21875 
Q 30.03125 74.21875 34.609375 68.875 
Q 39.203125 63.53125 39.203125 54.390625 
Q 39.203125 45.171875 34.640625 39.84375 
Q 30.078125 34.515625 22.3125 34.515625 
Q 14.546875 34.515625 10.03125 39.859375 
Q 5.515625 45.21875 5.515625 54.390625 
Q 5.515625 63.484375 10.046875 68.84375 
Q 14.59375 74.21875 22.3125 74.21875 
z
" id="DejaVuSans-37"/>
      <path d="M 30.421875 75.984375 
L 30.421875 -13.1875 
L 9.71875 -13.1875 
L 9.71875 -6.203125 
L 21.390625 -6.203125 
L 21.390625 69 
L 9.71875 69 
L 9.71875 75.984375 
z
" id="DejaVuSans-93"/>
     </defs>
     <g transform="translate(31.795312 235.505344)rotate(-90)scale(0.1 -0.1)">
      <use xlink:href="#DejaVuSans-80"/>
      <use x="60.255859" xlink:href="#DejaVuSans-111"/>
      <use x="121.4375" xlink:href="#DejaVuSans-112"/>
      <use x="184.914062" xlink:href="#DejaVuSans-117"/>
      <use x="248.292969" xlink:href="#DejaVuSans-108"/>
      <use x="276.076172" xlink:href="#DejaVuSans-97"/>
      <use x="337.355469" xlink:href="#DejaVuSans-231"/>
      <use x="392.335938" xlink:href="#DejaVuSans-227"/>
      <use x="453.615234" xlink:href="#DejaVuSans-111"/>
      <use x="514.796875" xlink:href="#DejaVuSans-32"/>
      <use x="546.583984" xlink:href="#DejaVuSans-105"/>
      <use x="574.367188" xlink:href="#DejaVuSans-110"/>
      <use x="637.746094" xlink:href="#DejaVuSans-102"/>
      <use x="672.951172" xlink:href="#DejaVuSans-101"/>
      <use x="734.474609" xlink:href="#DejaVuSans-99"/>
      <use x="789.455078" xlink:href="#DejaVuSans-116"/>
      <use x="828.664062" xlink:href="#DejaVuSans-97"/>
      <use x="889.943359" xlink:href="#DejaVuSans-100"/>
      <use x="953.419922" xlink:href="#DejaVuSans-97"/>
      <use x="1014.699219" xlink:href="#DejaVuSans-32"/>
      <use x="1046.486328" xlink:href="#DejaVuSans-91"/>
      <use x="1085.5" xlink:href="#DejaVuSans-37"/>
      <use x="1180.519531" xlink:href="#DejaVuSans-93"/>
     </g>
    </g>
   </g>
   <g id="line2d_27">
    <path clip-path="url(#pb303e0fc03)" d="M 73.832727 295.487998 
L 85.24519 295.401147 
L 86.446502 295.218337 
L 87.347486 294.857629 
L 87.948142 294.378377 
L 88.548798 293.536619 
L 89.149454 292.062028 
L 89.75011 289.490709 
L 90.350766 285.042984 
L 90.951422 277.456943 
L 91.552078 264.828792 
L 92.152734 244.659954 
L 92.75339 214.592512 
L 93.654374 151.881696 
L 94.555358 88.668694 
L 95.156014 62.682654 
L 95.456342 56.174361 
L 95.75667 53.568 
L 96.056998 54.198165 
L 96.357326 57.338042 
L 96.957982 68.573487 
L 98.159294 99.101319 
L 99.961261 144.097381 
L 101.162573 169.356433 
L 102.363885 190.671257 
L 103.565197 208.493333 
L 104.766509 223.333636 
L 105.967821 235.665654 
L 107.169133 245.901909 
L 108.370445 254.393056 
L 109.571757 261.433787 
L 110.773069 267.270346 
L 111.974381 272.107837 
L 113.175693 276.116787 
L 114.377004 279.438814 
L 115.578316 282.191445 
L 116.779628 284.472164 
L 117.98094 286.361808 
L 119.48258 288.274881 
L 120.98422 289.787004 
L 122.48586 290.982178 
L 124.287828 292.090515 
L 126.089796 292.926246 
L 128.192091 293.645203 
L 130.594715 294.22333 
L 133.597995 294.698052 
L 137.502259 295.059547 
L 142.908162 295.30434 
L 151.617674 295.441086 
L 173.241288 295.486416 
L 398.487273 295.488 
L 398.487273 295.488 
" style="fill:none;stroke:#1f77b4;stroke-linecap:square;stroke-width:1.5;"/>
   </g>
   <g id="line2d_28">
    <path clip-path="url(#pb303e0fc03)" d="M 73.832727 295.487998 
L 98.75995 295.385665 
L 101.462901 295.153487 
L 102.964541 294.842553 
L 104.165853 294.396896 
L 105.066837 293.871682 
L 105.967821 293.096145 
L 106.868805 291.953939 
L 107.769789 290.278122 
L 108.370445 288.751591 
L 108.971101 286.794278 
L 109.571757 284.295563 
L 110.172413 281.123562 
L 111.073397 274.764745 
L 111.974381 265.970296 
L 112.875365 254.184268 
L 113.776348 239.066081 
L 114.97766 214.148838 
L 117.380284 161.42455 
L 118.281268 147.678211 
L 118.881924 141.760255 
L 119.48258 138.562751 
L 119.782908 137.94417 
L 120.083236 137.935146 
L 120.383564 138.492798 
L 120.683892 139.569108 
L 121.284548 143.07248 
L 121.885204 148.032187 
L 122.786188 157.361145 
L 124.588156 179.104135 
L 126.99078 207.435648 
L 128.492419 222.746109 
L 129.994059 235.858947 
L 131.495699 246.868101 
L 132.997339 255.993724 
L 134.498979 263.493728 
L 135.700291 268.494188 
L 136.901603 272.736193 
L 138.102915 276.327118 
L 139.304227 279.361821 
L 140.805867 282.498027 
L 142.307507 285.031029 
L 143.809146 287.074324 
L 145.310786 288.721023 
L 146.812426 290.047123 
L 148.614394 291.301421 
L 150.416362 292.267427 
L 152.518658 293.117124 
L 154.921282 293.817776 
L 157.624233 294.362024 
L 160.927841 294.792755 
L 165.132433 295.111684 
L 171.138993 295.33146 
L 181.350144 295.452767 
L 210.18163 295.487477 
L 398.487273 295.488 
L 398.487273 295.488 
" style="fill:none;stroke:#ff7f0e;stroke-linecap:square;stroke-width:1.5;"/>
   </g>
   <g id="line2d_29">
    <path clip-path="url(#pb303e0fc03)" d="M 73.832727 295.487998 
L 117.380284 295.382883 
L 121.885204 295.161841 
L 124.888484 294.795095 
L 126.99078 294.31543 
L 128.492419 293.782674 
L 129.994059 293.011618 
L 131.195371 292.155598 
L 132.396683 291.012091 
L 133.597995 289.491285 
L 134.498979 288.036284 
L 135.399963 286.249752 
L 136.300947 284.06767 
L 137.201931 281.419731 
L 138.102915 278.23206 
L 139.304227 273.017756 
L 140.505539 266.572267 
L 141.706851 258.826661 
L 143.20849 247.433242 
L 145.611114 226.835325 
L 147.413082 212.158408 
L 148.614394 204.226835 
L 149.515378 199.731452 
L 150.116034 197.528156 
L 150.71669 195.990011 
L 151.317346 195.11954 
L 151.617674 194.930183 
L 151.918002 194.900181 
L 152.21833 195.024924 
L 152.818986 195.716238 
L 153.419642 196.952931 
L 154.020298 198.676102 
L 154.921282 202.034163 
L 156.122594 207.618462 
L 157.924561 217.40977 
L 162.429481 242.524015 
L 164.231449 251.224482 
L 166.033417 258.825425 
L 167.535057 264.317812 
L 169.036697 269.087905 
L 170.538337 273.196439 
L 172.039976 276.712255 
L 173.541616 279.705461 
L 175.043256 282.243341 
L 176.544896 284.388109 
L 178.046536 286.195861 
L 179.848504 287.989816 
L 181.650472 289.443729 
L 183.45244 290.61976 
L 185.554736 291.708972 
L 187.657031 292.556511 
L 190.059655 293.296402 
L 193.062935 293.965549 
L 196.366543 294.468878 
L 200.571134 294.876926 
L 206.277366 295.182973 
L 214.386222 295.374435 
L 229.40262 295.46979 
L 288.567232 295.487987 
L 398.487273 295.488 
L 398.487273 295.488 
" style="fill:none;stroke:#2ca02c;stroke-linecap:square;stroke-width:1.5;"/>
   </g>
   <g id="line2d_30">
    <path clip-path="url(#pb303e0fc03)" d="M 73.832727 295.487998 
L 145.010458 295.381774 
L 152.518658 295.15088 
L 157.023577 294.81523 
L 160.327185 294.373511 
L 163.030137 293.80716 
L 165.432761 293.071909 
L 167.535057 292.177769 
L 169.337025 291.163738 
L 170.838665 290.0983 
L 172.340304 288.789048 
L 173.841944 287.190377 
L 175.343584 285.253608 
L 176.845224 282.929912 
L 178.346864 280.175041 
L 179.848504 276.956232 
L 181.350144 273.261323 
L 183.152112 268.228893 
L 185.554736 260.713649 
L 190.059655 246.288008 
L 191.561295 242.231006 
L 192.762607 239.530083 
L 193.963919 237.417583 
L 194.864903 236.260261 
L 195.765887 235.4873 
L 196.366543 235.188284 
L 196.967199 235.061163 
L 197.567855 235.10274 
L 198.168511 235.308015 
L 199.069495 235.908026 
L 199.970479 236.833276 
L 200.871462 238.050642 
L 202.072774 240.064717 
L 203.574414 243.082462 
L 205.67671 247.929856 
L 213.485238 266.606686 
L 215.587533 270.873227 
L 217.689829 274.660402 
L 219.792125 277.968135 
L 221.894421 280.82086 
L 223.996717 283.256802 
L 226.099013 285.320489 
L 228.201309 287.05782 
L 230.303604 288.513027 
L 232.706228 289.882893 
L 235.108852 290.991768 
L 237.811804 291.985193 
L 240.815084 292.83807 
L 244.118691 293.541326 
L 248.022955 294.137882 
L 252.828203 294.628719 
L 258.834762 295.000234 
L 266.943618 295.261225 
L 279.557393 295.419205 
L 306.586911 295.482669 
L 398.487273 295.487999 
L 398.487273 295.487999 
" style="fill:none;stroke:#d62728;stroke-linecap:square;stroke-width:1.5;"/>
   </g>
   <g id="line2d_31">
    <path clip-path="url(#pb303e0fc03)" d="M 73.832727 295.487998 
L 190.660311 295.378104 
L 202.973758 295.138955 
L 210.481958 294.784433 
L 215.887861 294.326816 
L 220.392781 293.732039 
L 224.297045 292.986095 
L 227.600653 292.127424 
L 230.603932 291.114674 
L 233.306884 289.972738 
L 236.009836 288.574686 
L 238.41246 287.089898 
L 240.815084 285.358882 
L 243.217708 283.374632 
L 245.920659 280.851751 
L 249.224267 277.420922 
L 257.933778 268.106489 
L 260.036074 266.27799 
L 261.838042 264.98355 
L 263.339682 264.132133 
L 264.841322 263.508283 
L 266.342962 263.124225 
L 267.844602 262.98461 
L 269.346242 263.086559 
L 270.847882 263.420188 
L 272.349521 263.969527 
L 274.151489 264.883849 
L 276.253785 266.248042 
L 278.656409 268.108764 
L 281.960017 270.998237 
L 291.270184 279.341796 
L 294.573792 281.928881 
L 297.577072 284.020341 
L 300.580352 285.855501 
L 303.583631 287.442547 
L 306.887239 288.923055 
L 310.190847 290.155244 
L 313.794783 291.25466 
L 317.699046 292.203947 
L 321.903638 292.998115 
L 326.708886 293.679282 
L 332.415117 294.254498 
L 339.322661 294.714357 
L 348.032172 295.059689 
L 360.045291 295.29909 
L 379.56661 295.438205 
L 398.487273 295.474342 
L 398.487273 295.474342 
" style="fill:none;stroke:#9467bd;stroke-linecap:square;stroke-width:1.5;"/>
   </g>
   <g id="patch_3">
    <path d="M 57.6 307.584 
L 57.6 41.472 
" style="fill:none;stroke:#000000;stroke-linecap:square;stroke-linejoin:miter;stroke-width:0.8;"/>
   </g>
   <g id="patch_4">
    <path d="M 414.72 307.584 
L 414.72 41.472 
" style="fill:none;stroke:#000000;stroke-linecap:square;stroke-linejoin:miter;stroke-width:0.8;"/>
   </g>
   <g id="patch_5">
    <path d="M 57.6 307.584 
L 414.72 307.584 
" style="fill:none;stroke:#000000;stroke-linecap:square;stroke-linejoin:miter;stroke-width:0.8;"/>
   </g>
   <g id="patch_6">
    <path d="M 57.6 41.472 
L 414.72 41.472 
" style="fill:none;stroke:#000000;stroke-linecap:square;stroke-linejoin:miter;stroke-width:0.8;"/>
   </g>
   <g id="text_16">
    <!-- COVID19 - Cenários de Evolução -->
    <defs>
     <path d="M 64.40625 67.28125 
L 64.40625 56.890625 
Q 59.421875 61.53125 53.78125 63.8125 
Q 48.140625 66.109375 41.796875 66.109375 
Q 29.296875 66.109375 22.65625 58.46875 
Q 16.015625 50.828125 16.015625 36.375 
Q 16.015625 21.96875 22.65625 14.328125 
Q 29.296875 6.6875 41.796875 6.6875 
Q 48.140625 6.6875 53.78125 8.984375 
Q 59.421875 11.28125 64.40625 15.921875 
L 64.40625 5.609375 
Q 59.234375 2.09375 53.4375 0.328125 
Q 47.65625 -1.421875 41.21875 -1.421875 
Q 24.65625 -1.421875 15.125 8.703125 
Q 5.609375 18.84375 5.609375 36.375 
Q 5.609375 53.953125 15.125 64.078125 
Q 24.65625 74.21875 41.21875 74.21875 
Q 47.75 74.21875 53.53125 72.484375 
Q 59.328125 70.75 64.40625 67.28125 
z
" id="DejaVuSans-67"/>
     <path d="M 39.40625 66.21875 
Q 28.65625 66.21875 22.328125 58.203125 
Q 16.015625 50.203125 16.015625 36.375 
Q 16.015625 22.609375 22.328125 14.59375 
Q 28.65625 6.59375 39.40625 6.59375 
Q 50.140625 6.59375 56.421875 14.59375 
Q 62.703125 22.609375 62.703125 36.375 
Q 62.703125 50.203125 56.421875 58.203125 
Q 50.140625 66.21875 39.40625 66.21875 
z
M 39.40625 74.21875 
Q 54.734375 74.21875 63.90625 63.9375 
Q 73.09375 53.65625 73.09375 36.375 
Q 73.09375 19.140625 63.90625 8.859375 
Q 54.734375 -1.421875 39.40625 -1.421875 
Q 24.03125 -1.421875 14.8125 8.828125 
Q 5.609375 19.09375 5.609375 36.375 
Q 5.609375 53.65625 14.8125 63.9375 
Q 24.03125 74.21875 39.40625 74.21875 
z
" id="DejaVuSans-79"/>
     <path d="M 28.609375 0 
L 0.78125 72.90625 
L 11.078125 72.90625 
L 34.1875 11.53125 
L 57.328125 72.90625 
L 67.578125 72.90625 
L 39.796875 0 
z
" id="DejaVuSans-86"/>
     <path d="M 9.8125 72.90625 
L 19.671875 72.90625 
L 19.671875 0 
L 9.8125 0 
z
" id="DejaVuSans-73"/>
     <path d="M 19.671875 64.796875 
L 19.671875 8.109375 
L 31.59375 8.109375 
Q 46.6875 8.109375 53.6875 14.9375 
Q 60.6875 21.78125 60.6875 36.53125 
Q 60.6875 51.171875 53.6875 57.984375 
Q 46.6875 64.796875 31.59375 64.796875 
z
M 9.8125 72.90625 
L 30.078125 72.90625 
Q 51.265625 72.90625 61.171875 64.09375 
Q 71.09375 55.28125 71.09375 36.53125 
Q 71.09375 17.671875 61.125 8.828125 
Q 51.171875 0 30.078125 0 
L 9.8125 0 
z
" id="DejaVuSans-68"/>
     <path d="M 10.984375 1.515625 
L 10.984375 10.5 
Q 14.703125 8.734375 18.5 7.8125 
Q 22.3125 6.890625 25.984375 6.890625 
Q 35.75 6.890625 40.890625 13.453125 
Q 46.046875 20.015625 46.78125 33.40625 
Q 43.953125 29.203125 39.59375 26.953125 
Q 35.25 24.703125 29.984375 24.703125 
Q 19.046875 24.703125 12.671875 31.3125 
Q 6.296875 37.9375 6.296875 49.421875 
Q 6.296875 60.640625 12.9375 67.421875 
Q 19.578125 74.21875 30.609375 74.21875 
Q 43.265625 74.21875 49.921875 64.515625 
Q 56.59375 54.828125 56.59375 36.375 
Q 56.59375 19.140625 48.40625 8.859375 
Q 40.234375 -1.421875 26.421875 -1.421875 
Q 22.703125 -1.421875 18.890625 -0.6875 
Q 15.09375 0.046875 10.984375 1.515625 
z
M 30.609375 32.421875 
Q 37.25 32.421875 41.125 36.953125 
Q 45.015625 41.5 45.015625 49.421875 
Q 45.015625 57.28125 41.125 61.84375 
Q 37.25 66.40625 30.609375 66.40625 
Q 23.96875 66.40625 20.09375 61.84375 
Q 16.21875 57.28125 16.21875 49.421875 
Q 16.21875 41.5 20.09375 36.953125 
Q 23.96875 32.421875 30.609375 32.421875 
z
" id="DejaVuSans-57"/>
     <path d="M 4.890625 31.390625 
L 31.203125 31.390625 
L 31.203125 23.390625 
L 4.890625 23.390625 
z
" id="DejaVuSans-45"/>
     <path d="M 34.28125 27.484375 
Q 23.390625 27.484375 19.1875 25 
Q 14.984375 22.515625 14.984375 16.5 
Q 14.984375 11.71875 18.140625 8.90625 
Q 21.296875 6.109375 26.703125 6.109375 
Q 34.1875 6.109375 38.703125 11.40625 
Q 43.21875 16.703125 43.21875 25.484375 
L 43.21875 27.484375 
z
M 52.203125 31.203125 
L 52.203125 0 
L 43.21875 0 
L 43.21875 8.296875 
Q 40.140625 3.328125 35.546875 0.953125 
Q 30.953125 -1.421875 24.3125 -1.421875 
Q 15.921875 -1.421875 10.953125 3.296875 
Q 6 8.015625 6 15.921875 
Q 6 25.140625 12.171875 29.828125 
Q 18.359375 34.515625 30.609375 34.515625 
L 43.21875 34.515625 
L 43.21875 35.40625 
Q 43.21875 41.609375 39.140625 45 
Q 35.0625 48.390625 27.6875 48.390625 
Q 23 48.390625 18.546875 47.265625 
Q 14.109375 46.140625 10.015625 43.890625 
L 10.015625 52.203125 
Q 14.9375 54.109375 19.578125 55.046875 
Q 24.21875 56 28.609375 56 
Q 40.484375 56 46.34375 49.84375 
Q 52.203125 43.703125 52.203125 31.203125 
z
M 35.78125 79.984375 
L 45.5 79.984375 
L 29.59375 61.625 
L 22.109375 61.625 
z
" id="DejaVuSans-225"/>
     <path d="M 9.8125 72.90625 
L 55.90625 72.90625 
L 55.90625 64.59375 
L 19.671875 64.59375 
L 19.671875 43.015625 
L 54.390625 43.015625 
L 54.390625 34.71875 
L 19.671875 34.71875 
L 19.671875 8.296875 
L 56.78125 8.296875 
L 56.78125 0 
L 9.8125 0 
z
" id="DejaVuSans-69"/>
     <path d="M 2.984375 54.6875 
L 12.5 54.6875 
L 29.59375 8.796875 
L 46.6875 54.6875 
L 56.203125 54.6875 
L 35.6875 0 
L 23.484375 0 
z
" id="DejaVuSans-118"/>
    </defs>
    <g transform="translate(138.404063 22.034625)scale(0.12 -0.12)">
     <use xlink:href="#DejaVuSans-67"/>
     <use x="69.824219" xlink:href="#DejaVuSans-79"/>
     <use x="148.519531" xlink:href="#DejaVuSans-86"/>
     <use x="216.927734" xlink:href="#DejaVuSans-73"/>
     <use x="246.419922" xlink:href="#DejaVuSans-68"/>
     <use x="323.421875" xlink:href="#DejaVuSans-49"/>
     <use x="387.044922" xlink:href="#DejaVuSans-57"/>
     <use x="450.667969" xlink:href="#DejaVuSans-32"/>
     <use x="482.455078" xlink:href="#DejaVuSans-45"/>
     <use x="518.539062" xlink:href="#DejaVuSans-32"/>
     <use x="550.326172" xlink:href="#DejaVuSans-67"/>
     <use x="620.150391" xlink:href="#DejaVuSans-101"/>
     <use x="681.673828" xlink:href="#DejaVuSans-110"/>
     <use x="745.052734" xlink:href="#DejaVuSans-225"/>
     <use x="806.332031" xlink:href="#DejaVuSans-114"/>
     <use x="847.445312" xlink:href="#DejaVuSans-105"/>
     <use x="875.228516" xlink:href="#DejaVuSans-111"/>
     <use x="936.410156" xlink:href="#DejaVuSans-115"/>
     <use x="988.509766" xlink:href="#DejaVuSans-32"/>
     <use x="1020.296875" xlink:href="#DejaVuSans-100"/>
     <use x="1083.773438" xlink:href="#DejaVuSans-101"/>
     <use x="1145.296875" xlink:href="#DejaVuSans-32"/>
     <use x="1177.083984" xlink:href="#DejaVuSans-69"/>
     <use x="1240.267578" xlink:href="#DejaVuSans-118"/>
     <use x="1299.447266" xlink:href="#DejaVuSans-111"/>
     <use x="1360.628906" xlink:href="#DejaVuSans-108"/>
     <use x="1388.412109" xlink:href="#DejaVuSans-117"/>
     <use x="1451.791016" xlink:href="#DejaVuSans-231"/>
     <use x="1506.771484" xlink:href="#DejaVuSans-227"/>
     <use x="1568.050781" xlink:href="#DejaVuSans-111"/>
    </g>
    <!--  (taxa de mortalidade 3.0 % - Brasil) -->
    <defs>
     <path d="M 31 75.875 
Q 24.46875 64.65625 21.28125 53.65625 
Q 18.109375 42.671875 18.109375 31.390625 
Q 18.109375 20.125 21.3125 9.0625 
Q 24.515625 -2 31 -13.1875 
L 23.1875 -13.1875 
Q 15.875 -1.703125 12.234375 9.375 
Q 8.59375 20.453125 8.59375 31.390625 
Q 8.59375 42.28125 12.203125 53.3125 
Q 15.828125 64.359375 23.1875 75.875 
z
" id="DejaVuSans-40"/>
     <path d="M 54.890625 54.6875 
L 35.109375 28.078125 
L 55.90625 0 
L 45.3125 0 
L 29.390625 21.484375 
L 13.484375 0 
L 2.875 0 
L 24.125 28.609375 
L 4.6875 54.6875 
L 15.28125 54.6875 
L 29.78125 35.203125 
L 44.28125 54.6875 
z
" id="DejaVuSans-120"/>
     <path d="M 10.6875 12.40625 
L 21 12.40625 
L 21 0 
L 10.6875 0 
z
" id="DejaVuSans-46"/>
     <path d="M 19.671875 34.8125 
L 19.671875 8.109375 
L 35.5 8.109375 
Q 43.453125 8.109375 47.28125 11.40625 
Q 51.125 14.703125 51.125 21.484375 
Q 51.125 28.328125 47.28125 31.5625 
Q 43.453125 34.8125 35.5 34.8125 
z
M 19.671875 64.796875 
L 19.671875 42.828125 
L 34.28125 42.828125 
Q 41.5 42.828125 45.03125 45.53125 
Q 48.578125 48.25 48.578125 53.8125 
Q 48.578125 59.328125 45.03125 62.0625 
Q 41.5 64.796875 34.28125 64.796875 
z
M 9.8125 72.90625 
L 35.015625 72.90625 
Q 46.296875 72.90625 52.390625 68.21875 
Q 58.5 63.53125 58.5 54.890625 
Q 58.5 48.1875 55.375 44.234375 
Q 52.25 40.28125 46.1875 39.3125 
Q 53.46875 37.75 57.5 32.78125 
Q 61.53125 27.828125 61.53125 20.40625 
Q 61.53125 10.640625 54.890625 5.3125 
Q 48.25 0 35.984375 0 
L 9.8125 0 
z
" id="DejaVuSans-66"/>
     <path d="M 8.015625 75.875 
L 15.828125 75.875 
Q 23.140625 64.359375 26.78125 53.3125 
Q 30.421875 42.28125 30.421875 31.390625 
Q 30.421875 20.453125 26.78125 9.375 
Q 23.140625 -1.703125 15.828125 -13.1875 
L 8.015625 -13.1875 
Q 14.5 -2 17.703125 9.0625 
Q 20.90625 20.125 20.90625 31.390625 
Q 20.90625 42.671875 17.703125 53.65625 
Q 14.5 64.65625 8.015625 75.875 
z
" id="DejaVuSans-41"/>
    </defs>
    <g transform="translate(126.913125 35.472)scale(0.12 -0.12)">
     <use xlink:href="#DejaVuSans-32"/>
     <use x="31.787109" xlink:href="#DejaVuSans-40"/>
     <use x="70.800781" xlink:href="#DejaVuSans-116"/>
     <use x="110.009766" xlink:href="#DejaVuSans-97"/>
     <use x="171.289062" xlink:href="#DejaVuSans-120"/>
     <use x="230.46875" xlink:href="#DejaVuSans-97"/>
     <use x="291.748047" xlink:href="#DejaVuSans-32"/>
     <use x="323.535156" xlink:href="#DejaVuSans-100"/>
     <use x="387.011719" xlink:href="#DejaVuSans-101"/>
     <use x="448.535156" xlink:href="#DejaVuSans-32"/>
     <use x="480.322266" xlink:href="#DejaVuSans-109"/>
     <use x="577.734375" xlink:href="#DejaVuSans-111"/>
     <use x="638.916016" xlink:href="#DejaVuSans-114"/>
     <use x="680.029297" xlink:href="#DejaVuSans-116"/>
     <use x="719.238281" xlink:href="#DejaVuSans-97"/>
     <use x="780.517578" xlink:href="#DejaVuSans-108"/>
     <use x="808.300781" xlink:href="#DejaVuSans-105"/>
     <use x="836.083984" xlink:href="#DejaVuSans-100"/>
     <use x="899.560547" xlink:href="#DejaVuSans-97"/>
     <use x="960.839844" xlink:href="#DejaVuSans-100"/>
     <use x="1024.316406" xlink:href="#DejaVuSans-101"/>
     <use x="1085.839844" xlink:href="#DejaVuSans-32"/>
     <use x="1117.626953" xlink:href="#DejaVuSans-51"/>
     <use x="1181.25" xlink:href="#DejaVuSans-46"/>
     <use x="1213.037109" xlink:href="#DejaVuSans-48"/>
     <use x="1276.660156" xlink:href="#DejaVuSans-32"/>
     <use x="1308.447266" xlink:href="#DejaVuSans-37"/>
     <use x="1403.466797" xlink:href="#DejaVuSans-32"/>
     <use x="1435.253906" xlink:href="#DejaVuSans-45"/>
     <use x="1471.337891" xlink:href="#DejaVuSans-32"/>
     <use x="1503.125" xlink:href="#DejaVuSans-66"/>
     <use x="1571.728516" xlink:href="#DejaVuSans-114"/>
     <use x="1612.841797" xlink:href="#DejaVuSans-97"/>
     <use x="1674.121094" xlink:href="#DejaVuSans-115"/>
     <use x="1726.220703" xlink:href="#DejaVuSans-105"/>
     <use x="1754.003906" xlink:href="#DejaVuSans-108"/>
     <use x="1781.787109" xlink:href="#DejaVuSans-41"/>
    </g>
   </g>
   <g id="legend_1">
    <g id="patch_7">
     <path d="M 124.098125 123.107937 
L 407.72 123.107937 
Q 409.72 123.107937 409.72 121.107937 
L 409.72 48.472 
Q 409.72 46.472 407.72 46.472 
L 124.098125 46.472 
Q 122.098125 46.472 122.098125 48.472 
L 122.098125 121.107937 
Q 122.098125 123.107937 124.098125 123.107937 
z
" style="fill:#ffffff;opacity:0.8;stroke:#cccccc;stroke-linejoin:miter;"/>
    </g>
    <g id="line2d_32">
     <path d="M 126.098125 54.74075 
L 146.098125 54.74075 
" style="fill:none;stroke:#1f77b4;stroke-linecap:square;stroke-width:1.5;"/>
    </g>
    <g id="line2d_33"/>
    <g id="text_17">
     <!-- taxa de duplicação: 2.68 dias, # mortes: 3964762 -->
     <defs>
      <path d="M 11.71875 12.40625 
L 22.015625 12.40625 
L 22.015625 0 
L 11.71875 0 
z
M 11.71875 51.703125 
L 22.015625 51.703125 
L 22.015625 39.3125 
L 11.71875 39.3125 
z
" id="DejaVuSans-58"/>
      <path d="M 11.71875 12.40625 
L 22.015625 12.40625 
L 22.015625 4 
L 14.015625 -11.625 
L 7.71875 -11.625 
L 11.71875 4 
z
" id="DejaVuSans-44"/>
      <path d="M 51.125 44 
L 36.921875 44 
L 32.8125 27.6875 
L 47.125 27.6875 
z
M 43.796875 71.78125 
L 38.71875 51.515625 
L 52.984375 51.515625 
L 58.109375 71.78125 
L 65.921875 71.78125 
L 60.890625 51.515625 
L 76.125 51.515625 
L 76.125 44 
L 58.984375 44 
L 54.984375 27.6875 
L 70.515625 27.6875 
L 70.515625 20.21875 
L 53.078125 20.21875 
L 48 0 
L 40.1875 0 
L 45.21875 20.21875 
L 30.90625 20.21875 
L 25.875 0 
L 18.015625 0 
L 23.09375 20.21875 
L 7.71875 20.21875 
L 7.71875 27.6875 
L 24.90625 27.6875 
L 29 44 
L 13.28125 44 
L 13.28125 51.515625 
L 30.90625 51.515625 
L 35.890625 71.78125 
z
" id="DejaVuSans-35"/>
      <path d="M 8.203125 72.90625 
L 55.078125 72.90625 
L 55.078125 68.703125 
L 28.609375 0 
L 18.3125 0 
L 43.21875 64.59375 
L 8.203125 64.59375 
z
" id="DejaVuSans-55"/>
     </defs>
     <g transform="translate(154.098125 58.24075)scale(0.1 -0.1)">
      <use xlink:href="#DejaVuSans-116"/>
      <use x="39.208984" xlink:href="#DejaVuSans-97"/>
      <use x="100.488281" xlink:href="#DejaVuSans-120"/>
      <use x="159.667969" xlink:href="#DejaVuSans-97"/>
      <use x="220.947266" xlink:href="#DejaVuSans-32"/>
      <use x="252.734375" xlink:href="#DejaVuSans-100"/>
      <use x="316.210938" xlink:href="#DejaVuSans-101"/>
      <use x="377.734375" xlink:href="#DejaVuSans-32"/>
      <use x="409.521484" xlink:href="#DejaVuSans-100"/>
      <use x="472.998047" xlink:href="#DejaVuSans-117"/>
      <use x="536.376953" xlink:href="#DejaVuSans-112"/>
      <use x="599.853516" xlink:href="#DejaVuSans-108"/>
      <use x="627.636719" xlink:href="#DejaVuSans-105"/>
      <use x="655.419922" xlink:href="#DejaVuSans-99"/>
      <use x="710.400391" xlink:href="#DejaVuSans-97"/>
      <use x="771.679688" xlink:href="#DejaVuSans-231"/>
      <use x="826.660156" xlink:href="#DejaVuSans-227"/>
      <use x="887.939453" xlink:href="#DejaVuSans-111"/>
      <use x="949.121094" xlink:href="#DejaVuSans-58"/>
      <use x="982.8125" xlink:href="#DejaVuSans-32"/>
      <use x="1014.599609" xlink:href="#DejaVuSans-50"/>
      <use x="1078.222656" xlink:href="#DejaVuSans-46"/>
      <use x="1110.009766" xlink:href="#DejaVuSans-54"/>
      <use x="1173.632812" xlink:href="#DejaVuSans-56"/>
      <use x="1237.255859" xlink:href="#DejaVuSans-32"/>
      <use x="1269.042969" xlink:href="#DejaVuSans-100"/>
      <use x="1332.519531" xlink:href="#DejaVuSans-105"/>
      <use x="1360.302734" xlink:href="#DejaVuSans-97"/>
      <use x="1421.582031" xlink:href="#DejaVuSans-115"/>
      <use x="1473.681641" xlink:href="#DejaVuSans-44"/>
      <use x="1505.46875" xlink:href="#DejaVuSans-32"/>
      <use x="1537.255859" xlink:href="#DejaVuSans-35"/>
      <use x="1621.044922" xlink:href="#DejaVuSans-32"/>
      <use x="1652.832031" xlink:href="#DejaVuSans-109"/>
      <use x="1750.244141" xlink:href="#DejaVuSans-111"/>
      <use x="1811.425781" xlink:href="#DejaVuSans-114"/>
      <use x="1852.539062" xlink:href="#DejaVuSans-116"/>
      <use x="1891.748047" xlink:href="#DejaVuSans-101"/>
      <use x="1953.271484" xlink:href="#DejaVuSans-115"/>
      <use x="2005.371094" xlink:href="#DejaVuSans-58"/>
      <use x="2039.0625" xlink:href="#DejaVuSans-32"/>
      <use x="2070.849609" xlink:href="#DejaVuSans-51"/>
      <use x="2134.472656" xlink:href="#DejaVuSans-57"/>
      <use x="2198.095703" xlink:href="#DejaVuSans-54"/>
      <use x="2261.71875" xlink:href="#DejaVuSans-52"/>
      <use x="2325.341797" xlink:href="#DejaVuSans-55"/>
      <use x="2388.964844" xlink:href="#DejaVuSans-54"/>
      <use x="2452.587891" xlink:href="#DejaVuSans-50"/>
     </g>
    </g>
    <g id="line2d_34">
     <path d="M 126.098125 69.437625 
L 146.098125 69.437625 
" style="fill:none;stroke:#ff7f0e;stroke-linecap:square;stroke-width:1.5;"/>
    </g>
    <g id="line2d_35"/>
    <g id="text_18">
     <!-- fator de redução: 2.0, # mortes: 2582092 -->
     <g transform="translate(154.098125 72.937625)scale(0.1 -0.1)">
      <use xlink:href="#DejaVuSans-102"/>
      <use x="35.205078" xlink:href="#DejaVuSans-97"/>
      <use x="96.484375" xlink:href="#DejaVuSans-116"/>
      <use x="135.693359" xlink:href="#DejaVuSans-111"/>
      <use x="196.875" xlink:href="#DejaVuSans-114"/>
      <use x="237.988281" xlink:href="#DejaVuSans-32"/>
      <use x="269.775391" xlink:href="#DejaVuSans-100"/>
      <use x="333.251953" xlink:href="#DejaVuSans-101"/>
      <use x="394.775391" xlink:href="#DejaVuSans-32"/>
      <use x="426.5625" xlink:href="#DejaVuSans-114"/>
      <use x="467.644531" xlink:href="#DejaVuSans-101"/>
      <use x="529.167969" xlink:href="#DejaVuSans-100"/>
      <use x="592.644531" xlink:href="#DejaVuSans-117"/>
      <use x="656.023438" xlink:href="#DejaVuSans-231"/>
      <use x="711.003906" xlink:href="#DejaVuSans-227"/>
      <use x="772.283203" xlink:href="#DejaVuSans-111"/>
      <use x="833.464844" xlink:href="#DejaVuSans-58"/>
      <use x="867.15625" xlink:href="#DejaVuSans-32"/>
      <use x="898.943359" xlink:href="#DejaVuSans-50"/>
      <use x="962.566406" xlink:href="#DejaVuSans-46"/>
      <use x="994.353516" xlink:href="#DejaVuSans-48"/>
      <use x="1057.976562" xlink:href="#DejaVuSans-44"/>
      <use x="1089.763672" xlink:href="#DejaVuSans-32"/>
      <use x="1121.550781" xlink:href="#DejaVuSans-35"/>
      <use x="1205.339844" xlink:href="#DejaVuSans-32"/>
      <use x="1237.126953" xlink:href="#DejaVuSans-109"/>
      <use x="1334.539062" xlink:href="#DejaVuSans-111"/>
      <use x="1395.720703" xlink:href="#DejaVuSans-114"/>
      <use x="1436.833984" xlink:href="#DejaVuSans-116"/>
      <use x="1476.042969" xlink:href="#DejaVuSans-101"/>
      <use x="1537.566406" xlink:href="#DejaVuSans-115"/>
      <use x="1589.666016" xlink:href="#DejaVuSans-58"/>
      <use x="1623.357422" xlink:href="#DejaVuSans-32"/>
      <use x="1655.144531" xlink:href="#DejaVuSans-50"/>
      <use x="1718.767578" xlink:href="#DejaVuSans-53"/>
      <use x="1782.390625" xlink:href="#DejaVuSans-56"/>
      <use x="1846.013672" xlink:href="#DejaVuSans-50"/>
      <use x="1909.636719" xlink:href="#DejaVuSans-48"/>
      <use x="1973.259766" xlink:href="#DejaVuSans-57"/>
      <use x="2036.882812" xlink:href="#DejaVuSans-50"/>
     </g>
    </g>
    <g id="line2d_36">
     <path d="M 126.098125 84.1345 
L 146.098125 84.1345 
" style="fill:none;stroke:#2ca02c;stroke-linecap:square;stroke-width:1.5;"/>
    </g>
    <g id="line2d_37"/>
    <g id="text_19">
     <!-- fator de redução: 3.0, # mortes: 1648507 -->
     <g transform="translate(154.098125 87.6345)scale(0.1 -0.1)">
      <use xlink:href="#DejaVuSans-102"/>
      <use x="35.205078" xlink:href="#DejaVuSans-97"/>
      <use x="96.484375" xlink:href="#DejaVuSans-116"/>
      <use x="135.693359" xlink:href="#DejaVuSans-111"/>
      <use x="196.875" xlink:href="#DejaVuSans-114"/>
      <use x="237.988281" xlink:href="#DejaVuSans-32"/>
      <use x="269.775391" xlink:href="#DejaVuSans-100"/>
      <use x="333.251953" xlink:href="#DejaVuSans-101"/>
      <use x="394.775391" xlink:href="#DejaVuSans-32"/>
      <use x="426.5625" xlink:href="#DejaVuSans-114"/>
      <use x="467.644531" xlink:href="#DejaVuSans-101"/>
      <use x="529.167969" xlink:href="#DejaVuSans-100"/>
      <use x="592.644531" xlink:href="#DejaVuSans-117"/>
      <use x="656.023438" xlink:href="#DejaVuSans-231"/>
      <use x="711.003906" xlink:href="#DejaVuSans-227"/>
      <use x="772.283203" xlink:href="#DejaVuSans-111"/>
      <use x="833.464844" xlink:href="#DejaVuSans-58"/>
      <use x="867.15625" xlink:href="#DejaVuSans-32"/>
      <use x="898.943359" xlink:href="#DejaVuSans-51"/>
      <use x="962.566406" xlink:href="#DejaVuSans-46"/>
      <use x="994.353516" xlink:href="#DejaVuSans-48"/>
      <use x="1057.976562" xlink:href="#DejaVuSans-44"/>
      <use x="1089.763672" xlink:href="#DejaVuSans-32"/>
      <use x="1121.550781" xlink:href="#DejaVuSans-35"/>
      <use x="1205.339844" xlink:href="#DejaVuSans-32"/>
      <use x="1237.126953" xlink:href="#DejaVuSans-109"/>
      <use x="1334.539062" xlink:href="#DejaVuSans-111"/>
      <use x="1395.720703" xlink:href="#DejaVuSans-114"/>
      <use x="1436.833984" xlink:href="#DejaVuSans-116"/>
      <use x="1476.042969" xlink:href="#DejaVuSans-101"/>
      <use x="1537.566406" xlink:href="#DejaVuSans-115"/>
      <use x="1589.666016" xlink:href="#DejaVuSans-58"/>
      <use x="1623.357422" xlink:href="#DejaVuSans-32"/>
      <use x="1655.144531" xlink:href="#DejaVuSans-49"/>
      <use x="1718.767578" xlink:href="#DejaVuSans-54"/>
      <use x="1782.390625" xlink:href="#DejaVuSans-52"/>
      <use x="1846.013672" xlink:href="#DejaVuSans-56"/>
      <use x="1909.636719" xlink:href="#DejaVuSans-53"/>
      <use x="1973.259766" xlink:href="#DejaVuSans-48"/>
      <use x="2036.882812" xlink:href="#DejaVuSans-55"/>
     </g>
    </g>
    <g id="line2d_38">
     <path d="M 126.098125 98.831375 
L 146.098125 98.831375 
" style="fill:none;stroke:#d62728;stroke-linecap:square;stroke-width:1.5;"/>
    </g>
    <g id="line2d_39"/>
    <g id="text_20">
     <!-- fator de redução: 4.0, # mortes: 990320 -->
     <g transform="translate(154.098125 102.331375)scale(0.1 -0.1)">
      <use xlink:href="#DejaVuSans-102"/>
      <use x="35.205078" xlink:href="#DejaVuSans-97"/>
      <use x="96.484375" xlink:href="#DejaVuSans-116"/>
      <use x="135.693359" xlink:href="#DejaVuSans-111"/>
      <use x="196.875" xlink:href="#DejaVuSans-114"/>
      <use x="237.988281" xlink:href="#DejaVuSans-32"/>
      <use x="269.775391" xlink:href="#DejaVuSans-100"/>
      <use x="333.251953" xlink:href="#DejaVuSans-101"/>
      <use x="394.775391" xlink:href="#DejaVuSans-32"/>
      <use x="426.5625" xlink:href="#DejaVuSans-114"/>
      <use x="467.644531" xlink:href="#DejaVuSans-101"/>
      <use x="529.167969" xlink:href="#DejaVuSans-100"/>
      <use x="592.644531" xlink:href="#DejaVuSans-117"/>
      <use x="656.023438" xlink:href="#DejaVuSans-231"/>
      <use x="711.003906" xlink:href="#DejaVuSans-227"/>
      <use x="772.283203" xlink:href="#DejaVuSans-111"/>
      <use x="833.464844" xlink:href="#DejaVuSans-58"/>
      <use x="867.15625" xlink:href="#DejaVuSans-32"/>
      <use x="898.943359" xlink:href="#DejaVuSans-52"/>
      <use x="962.566406" xlink:href="#DejaVuSans-46"/>
      <use x="994.353516" xlink:href="#DejaVuSans-48"/>
      <use x="1057.976562" xlink:href="#DejaVuSans-44"/>
      <use x="1089.763672" xlink:href="#DejaVuSans-32"/>
      <use x="1121.550781" xlink:href="#DejaVuSans-35"/>
      <use x="1205.339844" xlink:href="#DejaVuSans-32"/>
      <use x="1237.126953" xlink:href="#DejaVuSans-109"/>
      <use x="1334.539062" xlink:href="#DejaVuSans-111"/>
      <use x="1395.720703" xlink:href="#DejaVuSans-114"/>
      <use x="1436.833984" xlink:href="#DejaVuSans-116"/>
      <use x="1476.042969" xlink:href="#DejaVuSans-101"/>
      <use x="1537.566406" xlink:href="#DejaVuSans-115"/>
      <use x="1589.666016" xlink:href="#DejaVuSans-58"/>
      <use x="1623.357422" xlink:href="#DejaVuSans-32"/>
      <use x="1655.144531" xlink:href="#DejaVuSans-57"/>
      <use x="1718.767578" xlink:href="#DejaVuSans-57"/>
      <use x="1782.390625" xlink:href="#DejaVuSans-48"/>
      <use x="1846.013672" xlink:href="#DejaVuSans-51"/>
      <use x="1909.636719" xlink:href="#DejaVuSans-50"/>
      <use x="1973.259766" xlink:href="#DejaVuSans-48"/>
     </g>
    </g>
    <g id="line2d_40">
     <path d="M 126.098125 113.52825 
L 146.098125 113.52825 
" style="fill:none;stroke:#9467bd;stroke-linecap:square;stroke-width:1.5;"/>
    </g>
    <g id="line2d_41"/>
    <g id="text_21">
     <!-- fator de redução: 5.0, # mortes: 532689 -->
     <g transform="translate(154.098125 117.02825)scale(0.1 -0.1)">
      <use xlink:href="#DejaVuSans-102"/>
      <use x="35.205078" xlink:href="#DejaVuSans-97"/>
      <use x="96.484375" xlink:href="#DejaVuSans-116"/>
      <use x="135.693359" xlink:href="#DejaVuSans-111"/>
      <use x="196.875" xlink:href="#DejaVuSans-114"/>
      <use x="237.988281" xlink:href="#DejaVuSans-32"/>
      <use x="269.775391" xlink:href="#DejaVuSans-100"/>
      <use x="333.251953" xlink:href="#DejaVuSans-101"/>
      <use x="394.775391" xlink:href="#DejaVuSans-32"/>
      <use x="426.5625" xlink:href="#DejaVuSans-114"/>
      <use x="467.644531" xlink:href="#DejaVuSans-101"/>
      <use x="529.167969" xlink:href="#DejaVuSans-100"/>
      <use x="592.644531" xlink:href="#DejaVuSans-117"/>
      <use x="656.023438" xlink:href="#DejaVuSans-231"/>
      <use x="711.003906" xlink:href="#DejaVuSans-227"/>
      <use x="772.283203" xlink:href="#DejaVuSans-111"/>
      <use x="833.464844" xlink:href="#DejaVuSans-58"/>
      <use x="867.15625" xlink:href="#DejaVuSans-32"/>
      <use x="898.943359" xlink:href="#DejaVuSans-53"/>
      <use x="962.566406" xlink:href="#DejaVuSans-46"/>
      <use x="994.353516" xlink:href="#DejaVuSans-48"/>
      <use x="1057.976562" xlink:href="#DejaVuSans-44"/>
      <use x="1089.763672" xlink:href="#DejaVuSans-32"/>
      <use x="1121.550781" xlink:href="#DejaVuSans-35"/>
      <use x="1205.339844" xlink:href="#DejaVuSans-32"/>
      <use x="1237.126953" xlink:href="#DejaVuSans-109"/>
      <use x="1334.539062" xlink:href="#DejaVuSans-111"/>
      <use x="1395.720703" xlink:href="#DejaVuSans-114"/>
      <use x="1436.833984" xlink:href="#DejaVuSans-116"/>
      <use x="1476.042969" xlink:href="#DejaVuSans-101"/>
      <use x="1537.566406" xlink:href="#DejaVuSans-115"/>
      <use x="1589.666016" xlink:href="#DejaVuSans-58"/>
      <use x="1623.357422" xlink:href="#DejaVuSans-32"/>
      <use x="1655.144531" xlink:href="#DejaVuSans-53"/>
      <use x="1718.767578" xlink:href="#DejaVuSans-51"/>
      <use x="1782.390625" xlink:href="#DejaVuSans-50"/>
      <use x="1846.013672" xlink:href="#DejaVuSans-54"/>
      <use x="1909.636719" xlink:href="#DejaVuSans-56"/>
      <use x="1973.259766" xlink:href="#DejaVuSans-57"/>
     </g>
    </g>
   </g>
  </g>
 </g>
 <defs>
  <clipPath id="pb303e0fc03">
   <rect height="266.112" width="357.12" x="57.6" y="41.472"/>
  </clipPath>
 </defs>
</svg>
